<svg xmlns="http://www.w3.org/2000/svg" viewBox="0 0 984.78 407.55"><defs><style>.cls-1{fill:#060f28;}.cls-2{fill:#fdba23;}.cls-3{fill:#0054ff;}.cls-4{fill:#02c1a1;}.cls-5{fill:#7bbaff;}.cls-6{fill:#ff5b57;}</style></defs><g id="Layer_2" data-name="Layer 2"><g id="Logos"><path class="cls-1" d="M597.5,77.64v32.89h-5V76.36a30.33,30.33,0,0,0-60.63,1.28v32.89h-5V76.36a30.33,30.33,0,0,0-60.63,1.47v32.7h-5V44.94h5v14.7A35.34,35.34,0,0,1,529,63.31c5.7-11.94,20.4-20.94,33.26-20.94A35.28,35.28,0,0,1,597.5,77.64Z"></path><path class="cls-1" d="M682.2,77.09a11.67,11.67,0,0,1-.19,2.57h-65.4A30.42,30.42,0,0,0,671.36,95.1l4.41,2.2a34.76,34.76,0,0,1-28.85,15.07A35.28,35.28,0,1,1,682,74.7,10.19,10.19,0,0,1,682.2,77.09Zm-5.14-2.39a30.32,30.32,0,0,0-60.45,0Z"></path><path class="cls-1" d="M761.2,77.09a11.67,11.67,0,0,1-.19,2.57h-65.4A30.42,30.42,0,0,0,750.36,95.1l4.41,2.2a34.77,34.77,0,0,1-28.85,15.07A35.28,35.28,0,1,1,761,74.7,10.19,10.19,0,0,1,761.2,77.09Zm-5.14-2.39a30.32,30.32,0,0,0-60.45,0Z"></path><path class="cls-1" d="M796.66,45.49H784V110.9h-5.15V45.49H766.71v-5h12.12V.29H784V40.53h12.68Z"></path><path class="cls-1" d="M472,164.5a3.58,3.58,0,1,1-3.48-3.49A3.61,3.61,0,0,1,472,164.5ZM466,179h5v65.41h-5Z"></path><path class="cls-1" d="M551.38,244.61h-5V210.43a30.33,30.33,0,0,0-60.63,1.47v32.71h-5V179h5v14.7a35.26,35.26,0,0,1,65.59,18Z"></path><path class="cls-1" d="M631.67,244.61h-5V210.43a30.33,30.33,0,0,0-60.63,1.47v32.71h-5V179h5v14.7a35.26,35.26,0,0,1,65.59,18Z"></path><path class="cls-1" d="M640.85,212.09a35.28,35.28,0,1,1,35.28,35.27A35.29,35.29,0,0,1,640.85,212.09Zm5,0a30.32,30.32,0,1,0,30.32-30.32A30.34,30.34,0,0,0,645.81,212.09Z"></path><path class="cls-1" d="M790.59,177l-32.15,68.54h-6.25L720,177h6.06l29.21,62.29,29-62.29Z"></path><path class="cls-1" d="M867.75,179v65.6h-5.14v-14.7A35,35,0,0,1,832.48,247a35.28,35.28,0,1,1,30.13-53.29V179Zm-5.14,32.71A30.23,30.23,0,1,0,832.48,242,30.31,30.31,0,0,0,862.61,211.72Z"></path><path class="cls-1" d="M905.05,179.75H892.37v65.41h-5.15V179.75H875.1v-5h12.12V134.55h5.15v40.24h12.68Z"></path><path class="cls-1" d="M984.78,211.35a12.45,12.45,0,0,1-.18,2.58H919.18a30.43,30.43,0,0,0,54.76,15.43l4.41,2.2a34.76,34.76,0,0,1-28.85,15.07A35.28,35.28,0,1,1,984.6,209,10.75,10.75,0,0,1,984.78,211.35ZM979.64,209a30.33,30.33,0,0,0-60.46,0Z"></path><path class="cls-1" d="M520.89,375.93c-6.07,4.41-15.8,5.14-23.34,5.14a35.28,35.28,0,1,1,0-70.55c7.54,0,16.54,1.29,22.6,5.7,0,0-1.1,1.28-3.31,3.49-4.59-2.76-14-4.23-19.29-4.23a30.32,30.32,0,0,0,0,60.63c5.33,0,14.7-1.47,19.29-4C519.05,374.27,520.89,375.93,520.89,375.93Z"></path><path class="cls-1" d="M574.17,317.13l-3.68,3.49c-3.49-3.12-8.45-5.14-14.7-5.14-11.2,0-19.11,6.61-19.11,16.17v47h-5V312.91h5v5.33c4.41-4.78,11.21-7.72,19.11-7.72C563.32,310.52,569.76,312.91,574.17,317.13Z"></path><path class="cls-1" d="M655.56,345.61a11.81,11.81,0,0,1-.19,2.58H590a30.43,30.43,0,0,0,54.76,15.43l4.4,2.2a34.74,34.74,0,0,1-28.84,15.07,35.28,35.28,0,1,1,35.09-37.67A10.19,10.19,0,0,1,655.56,345.61Zm-5.15-2.39a30.32,30.32,0,0,0-60.45,0Z"></path><path class="cls-1" d="M732.17,313.28v65.59H727v-14.7a35,35,0,0,1-30.13,17.09A35.28,35.28,0,1,1,727,328V313.28ZM727,346a30.23,30.23,0,1,0-30.13,30.32A30.31,30.31,0,0,0,727,346Z"></path><path class="cls-1" d="M769.46,314H756.78v65.41h-5.14V314H739.51v-5h12.13V268.81h5.14v40.24h12.68Z"></path><path class="cls-1" d="M849.19,345.61a12.45,12.45,0,0,1-.18,2.58H783.6a30.42,30.42,0,0,0,54.75,15.43l4.41,2.2a34.75,34.75,0,0,1-28.84,15.07A35.28,35.28,0,1,1,849,343.22,10.75,10.75,0,0,1,849.19,345.61Zm-5.14-2.39a30.32,30.32,0,0,0-60.45,0Z"></path><rect class="cls-2" x="184.05" y="144.61" width="39.44" height="118.32"></rect><polygon class="cls-3" points="136.61 0 92.03 80.36 47.75 0.17 0 0.17 0 184.06 39.44 184.06 39.44 61.88 72.51 118.29 112.12 118.29 144.55 61.36 144.55 118.34 183.99 118.34 184.06 0 136.61 0"></polygon><polygon class="cls-4" points="407.55 0 223.5 0 223.5 39.44 368.11 39.44 368.11 184.06 407.55 184.06 407.55 0"></polygon><polygon class="cls-5" points="0 407.55 184.06 407.55 184.06 368.11 39.44 368.11 39.44 223.5 0.07 223.59 0 407.55"></polygon><path class="cls-6" d="M407.62,368.05h-67a52.45,52.45,0,1,1,0-104.89h67V223.68H339.76A91.93,91.93,0,0,0,248.5,315c0,.22,0,.44,0,.66s0,.44,0,.66a91.91,91.91,0,0,0,91.26,91.26l.66,0,.67,0h66.53Z"></path></g></g></svg>